<svg xmlns="http://www.w3.org/2000/svg" viewBox="0 0 1024 1024"><path fill="currentColor" fill-rule="evenodd" d="M422.5 247c-.34.55-1.747 1-3.126 1-1.571 0-3.742 1.308-5.809 3.5-1.816 1.925-3.966 3.5-4.778 3.5-1.788 0-5.053 3.4-4.141 4.312.357.358-1.667 2.895-4.498 5.638-2.831 2.744-5.148 5.608-5.148 6.364s-.9 2.191-2 3.186-2 2.337-2 2.981-1.125 2.227-2.5 3.519-2.5 3.17-2.5 4.174-.45 1.826-1 1.826-1 .9-1 2-.45 2-1 2-1 .845-1 1.878-.675 2.437-1.5 3.122-1.5 1.865-1.5 2.622c0 1.118-3.284 1.378-17.378 1.378-14.226 0-17.603.272-18.622 1.5-.715.861-2.896 1.5-5.122 1.5-2.133 0-3.878.45-3.878 1s-2.025 1-4.5 1-4.5.45-4.5 1-2.025 1-4.5 1c-3.431 0-4.5-.375-4.5-1.577 0-1.944-5.336-7.423-7.23-7.423-.761 0-3.767-2.475-6.681-5.5-2.913-3.025-5.837-5.5-6.497-5.5s-2.726-1.575-4.592-3.5-4.204-3.5-5.196-3.5-1.804-.45-1.804-1-.914-1-2.031-1c-1.118 0-2.291-.675-2.607-1.5s-1.189-1.5-1.939-1.5c-.749 0-2.965-.9-4.923-2-2.782-1.562-5.414-2-12.03-2-4.98 0-8.47.412-8.47 1 0 .55-.83 1-1.845 1-2.23 0-5.155 3.023-5.155 5.329 0 .919-.45 1.671-1 1.671s-1 .681-1 1.514c0 1.635-1.669 4.95-3.885 7.714-.905 1.129-1.199 3.105-.85 5.71.367 2.735.096 4.348-.865 5.145-2.026 1.681-2.07 53.116-.047 54.795.942.782 1.207 2.651.87 6.15-.363 3.78-.072 5.481 1.172 6.856 1.473 1.628 1.489 1.968.141 3.086-.833.691-1.299 1.605-1.036 2.03s-.192 1.329-1.011 2.009-1.489 2.504-1.489 4.054-.45 3.097-1 3.437-1 2.391-1 4.559-.45 3.941-1 3.941-1 2.42-1 5.378c0 3.56-.507 5.798-1.5 6.622-1.234 1.024-1.5 4.507-1.5 19.622V441h-7.531c-5.772 0-7.666.35-8.107 1.5-.317.825-1.428 1.5-2.469 1.5-2.534 0-2.579 5.069-.064 7.345 2.42 2.191 12.391 2.3 14.171.155 2.762-3.328 9-.222 9 4.481 0 1.077.9 3.561 2 5.519 2.419 4.308 2.41 4.125.25 4.872-.963.332-3.1 1.477-4.75 2.543s-3.787 1.972-4.75 2.012S225 471.45 225 472s-.83 1-1.845 1c-4.61 0-6.654 6.474-3.211 10.17 2.025 2.174 2.401 2.116 7.926-1.225 1.853-1.121 3.65-1.759 3.992-1.417s-.162 1.061-1.12 1.597c-.997.558-1.742 2.15-1.742 3.725 0 1.512-.423 3.178-.94 3.7s-1.08 3.2-1.25 5.95c-.31 5-.31 5-3.889 4.691-2.328-.2-4.031.236-4.872 1.25-.712.858-2.589 1.559-4.171 1.559s-2.878.45-2.878 1-1.056 1-2.346 1c-2.954 0-7.776 2.372-10.147 4.993-.999 1.104-2.548 2.007-3.441 2.007-.894 0-2.273.9-3.066 2s-2.139 2-2.992 2C187.016 516 170 533.052 170 535.049c0 .83-.9 2.158-2 2.951s-2 2.187-2 3.098c0 .912-.67 2.213-1.489 2.893s-1.274 1.584-1.011 2.009-.192 1.329-1.011 2.009S161 550.09 161 551.122s-.45 1.878-1 1.878-1 .9-1 2-.45 2-1 2-1 1.295-1 2.878c0 1.582-.675 3.437-1.5 4.122-.854.709-1.5 2.889-1.5 5.063 0 2.101-.45 4.097-1 4.437s-1 3.516-1 7.059c0 3.627-.437 6.441-1 6.441-1.327 0-1.327 19.68 0 20.5.55.34 1 3.516 1 7.059 0 3.627.437 6.441 1 6.441.55 0 1 1.295 1 2.878 0 1.582.675 3.437 1.5 4.122s1.5 2.54 1.5 4.122c0 1.583.45 2.878 1 2.878s1 .9 1 2 .45 2 1 2 1 .845 1 1.878.67 2.433 1.489 3.113 1.274 1.584 1.011 2.009.192 1.329 1.011 2.009S166 650.09 166 651.122s.45 1.878 1 1.878 1 .822 1 1.826 1.123 2.881 2.496 4.17 2.257 2.584 1.966 2.876c-.793.792 23.787 25.128 25.379 25.128.754 0 2.24 1.105 3.302 2.454 1.112 1.414 2.548 2.218 3.385 1.897.811-.311 1.728.151 2.071 1.045.338.882 1.228 1.604 1.978 1.604.749 0 2.965.9 4.923 2s4.174 2 4.923 2c.75 0 1.622.675 1.939 1.5s1.489 1.5 2.607 1.5c1.117 0 2.031.45 2.031 1s1.323 1 2.941 1 3.219.45 3.559 1 2.301 1 4.359 1 4.273.532 4.924 1.183c.688.688 3.42 1.079 6.524.936 3.857-.179 5.702.187 6.64 1.317 1.909 2.3 26.197 2.3 28.106 0 .938-1.13 2.783-1.496 6.64-1.317 3.104.143 5.836-.248 6.524-.936 2.019-2.019 6.783-1.487 6.783.758 0 1.068.45 2.219 1 2.559s1 1.893 1 3.452c0 1.597.655 3.085 1.5 3.41.825.316 1.5 1.489 1.5 2.607 0 1.117.45 2.031 1 2.031s1 .873 1 1.941.45 2.219 1 2.559 1 1.314 1 2.165 1.125 2.432 2.5 3.514 2.5 2.626 2.5 3.432c0 1.912 18.477 20.389 20.389 20.389.806 0 2.351 1.125 3.432 2.5 1.082 1.375 2.62 2.5 3.418 2.5s2.266.9 3.261 2 2.592 2 3.548 2 1.997.675 2.314 1.5 1.489 1.5 2.607 1.5c1.117 0 2.031.45 2.031 1s1.323 1 2.941 1 3.219.45 3.559 1 1.915 1 3.5 1 3.16.45 3.5 1 2.343 1 4.452 1c2.486 0 4.036.528 4.41 1.5.482 1.258 3.543 1.5 18.984 1.5 15.144 0 18.63-.266 19.654-1.5.709-.854 2.889-1.5 5.063-1.5 2.101 0 4.097-.45 4.437-1s1.941-1 3.559-1 2.941-.45 2.941-1 .606-1 1.346-1c1.72 0 7.433-2.834 8.193-4.063.319-.515 1.452-.937 2.52-.937s1.941-.45 1.941-1 .9-1 2-1 2-.45 2-1 1.575-1 3.5-1 3.5.45 3.5 1 .873 1 1.941 1 2.219.45 2.559 1 1.443 1 2.452 1 2.093.675 2.41 1.5c.316.825 1.489 1.5 2.607 1.5 1.117 0 2.031.45 2.031 1s1.323 1 2.941 1 3.219.45 3.559 1 1.491 1 2.559 1 1.941.45 1.941 1 1.745 1 3.878 1c2.226 0 4.407.639 5.122 1.5.791.954 3 1.5 6.063 1.5 2.651 0 5.097.45 5.437 1 .369.597 6.824 1 16 1s15.631-.403 16-1c.34-.55 2.343-1 4.452-1 2.486 0 4.036-.528 4.41-1.5.378-.985 1.939-1.5 4.548-1.5 2.184 0 4.25-.45 4.59-1s1.491-1 2.559-1 1.941-.45 1.941-1 1.272-1 2.826-1c1.721 0 3.743-.977 5.174-2.5 1.292-1.375 3.17-2.5 4.174-2.5s1.826-.45 1.826-1 .788-1.006 1.75-1.013c1.951-.015 25.25-23.119 25.25-25.039 0-.67 1.125-2.261 2.5-3.536s2.5-2.923 2.5-3.664.54-1.888 1.2-2.548c1.448-1.448 11.428-1.61 12.3-.2.34.55 2.815 1 5.5 1s5.16-.45 5.5-1 3.236-1 6.437-1c3.952 0 6.217-.481 7.063-1.5.685-.825 2.54-1.5 4.122-1.5 1.583 0 2.878-.45 2.878-1s.873-1 1.941-1 2.219-.45 2.559-1 1.314-1 2.165-1 2.432-1.125 3.514-2.5 2.635-2.5 3.452-2.5 6.676-5.176 13.02-11.502 11.882-11.287 12.308-11.023c.425.263 1.582-.415 2.569-1.506 1.96-2.166 7.048-4.969 9.019-4.969.681 0 1.498-.675 1.815-1.5s1.489-1.5 2.607-1.5c1.117 0 2.031-.45 2.031-1s.873-1 1.941-1 2.219-.45 2.559-1 1.941-1 3.559-1 2.941-.45 2.941-1 1.977-1 4.393-1c2.982 0 4.578-.482 4.969-1.5.476-1.241 3.154-1.5 15.484-1.5 12.033 0 15.149.289 16.154 1.5.791.954 3 1.5 6.063 1.5 2.651 0 5.097.45 5.437 1s3.066 1 6.059 1 5.441.45 5.441 1c0 .593 3.667 1 9 1s9 .407 9 1c0 1.321 17.684 1.321 18.5 0 .34-.55 3.516-1 7.059-1 3.627 0 6.441-.437 6.441-1 0-.55 2.025-1 4.5-1s4.5-.45 4.5-1 1.323-1 2.941-1 3.201-.422 3.52-.937c.76-1.229 6.473-4.063 8.193-4.063.74 0 1.346-.45 1.346-1s.843-1 1.873-1 3.218-1.575 4.862-3.5 3.625-3.5 4.402-3.5c1.789 0 15.863-14.089 15.863-15.88 0-.733 1.125-2.217 2.5-3.299s2.5-2.734 2.5-3.673c0-.938.9-2.355 2-3.148s2-2.187 2-3.098c0-.912.675-2.217 1.5-2.902s1.5-2.54 1.5-4.122c0-1.583.45-2.878 1-2.878s1-1.323 1-2.941.45-3.219 1-3.559 1-2.301 1-4.359.485-4.226 1.078-4.819c.592-.592 1.114-4.693 1.158-9.112.099-9.749-.919-11.21-7.814-11.21-4.08 0-5.181.474-8.119 3.5-1.87 1.925-4.026 3.5-4.792 3.5s-1.671.45-2.011 1-2.365 1-4.5 1-4.16.45-4.5 1c-.81 1.31-13.5 1.31-13.5 0 0-.55-2.025-1-4.5-1-4.5 0-4.5 0-4.5-5.441 0-2.993.45-5.719 1-6.059s1-2.365 1-4.5-.45-4.16-1-4.5-1-2.815-1-5.5-.45-5.16-1-5.5-1-1.956-1-3.59c0-1.72-.632-3.215-1.5-3.548-.825-.317-1.5-1.134-1.5-1.815 0-1.971-2.803-7.059-4.969-9.019-1.091-.987-1.733-2.202-1.425-2.699.713-1.155-7.139-8.829-9.035-8.829-.784 0-2.311-1.125-3.392-2.5-1.082-1.375-2.663-2.5-3.514-2.5s-1.825-.45-2.165-1-1.443-1-2.452-1-2.111-.723-2.45-1.606c-.429-1.117-1.34-1.425-2.993-1.01-1.5.377-2.832.047-3.613-.894-.707-.851-2.899-1.49-5.114-1.49C798 523 798 523 798 507.559c0-9.215-.403-15.69-1-16.059-.55-.34-1-1.893-1-3.452 0-1.597-.655-3.085-1.5-3.41-.825-.316-1.5-1.489-1.5-2.607 0-1.117-.45-2.031-1-2.031s-1-.873-1-1.941-.45-2.219-1-2.559-1-1.183-1-1.873c0-1.638-16.989-18.627-18.627-18.627-.69 0-1.533-.45-1.873-1s-1.443-1-2.452-1-2.093-.675-2.41-1.5c-.316-.825-1.489-1.5-2.607-1.5-1.117 0-2.031-.45-2.031-1s-1.323-1-2.941-1-3.219-.45-3.559-1-1.941-1-3.559-1C746 446 746 446 746 429.622c0-13.337-.278-16.608-1.5-17.622-.954-.791-1.5-3-1.5-6.063 0-2.651-.45-5.097-1-5.437s-1-1.915-1-3.5-.45-3.16-1-3.5-1-1.893-1-3.452c0-1.68-.654-3.085-1.606-3.45-1.117-.429-1.425-1.34-1.01-2.993.377-1.5.047-2.832-.894-3.613-.819-.68-1.49-2.532-1.49-4.114 0-1.583-.45-2.878-1-2.878s-1.033-.788-1.073-1.75-.934-3.1-1.985-4.75-2.322-3.918-2.823-5.041-1.633-2.64-2.515-3.373c-.882-.732-1.604-2.176-1.604-3.208s-.45-1.878-1-1.878-1-.867-1-1.927-1.125-2.813-2.5-3.894c-1.375-1.082-2.5-2.596-2.5-3.365s-2.025-3.385-4.5-5.814-4.5-4.926-4.5-5.55c0-1.559-16.784-18.45-18.334-18.45-.687 0-3.237-2.025-5.666-4.5s-5.045-4.5-5.814-4.5-2.283-1.125-3.365-2.5c-1.081-1.375-2.833-2.5-3.894-2.5s-1.927-.45-1.927-1-.845-1-1.878-1-2.476-.722-3.208-1.604-2.25-2.014-3.373-2.515-3.391-1.771-5.041-2.823c-1.65-1.051-3.788-1.945-4.75-1.985S648 288.55 648 288s-1.323-1-2.941-1-3.201-.422-3.52-.937c-.938-1.518-6.659-4.063-9.134-4.063-1.258 0-2.565-.45-2.905-1s-2.365-1-4.5-1-4.16-.45-4.5-1-2.406-1-4.59-1c-2.609 0-4.17-.515-4.548-1.5-.452-1.178-2.487-1.5-9.469-1.5-5.262 0-8.893-.408-8.893-1 0-.631-6.98-1-18.941-1-11.549 0-19.182.39-19.559 1-.34.55-3.918 1-7.952 1-5.597 0-7.47.355-7.91 1.5-.415 1.083-2.112 1.5-6.107 1.5-3.042 0-5.531.45-5.531 1s-2.025 1-4.5 1-4.5.45-4.5 1-1.295 1-2.878 1c-1.582 0-3.399.629-4.036 1.397-.638.768-1.962 1.187-2.943.93-.98-.256-2.369.24-3.085 1.103-.717.864-2.148 1.57-3.18 1.57s-1.878.45-1.878 1-1.323 1-2.941 1-3.219.45-3.559 1-1.443 1-2.452 1-2.093.675-2.41 1.5c-.316.825-1.489 1.5-2.607 1.5-1.117 0-2.031.45-2.031 1s-.873 1-1.941 1-2.219.45-2.559 1-1.491 1-2.559 1-1.941.45-1.941 1c0 1.419-3.177 1.182-5.25-.392-.962-.731-1.75-2.49-1.75-3.909 0-1.42-.45-2.859-1-3.199s-1-1.491-1-2.559-.45-1.941-1-1.941-1-.873-1-1.941-.422-2.201-.937-2.52c-1.229-.76-4.063-6.473-4.063-8.193 0-.74-.45-1.346-1-1.346s-1-.867-1-1.927-1.125-2.813-2.5-3.894c-1.375-1.082-2.5-2.588-2.5-3.348 0-1.994-14.223-15.831-16.274-15.831-.949 0-1.726-.45-1.726-1s-2.448-1-5.441-1-5.719.45-6.059 1m-.506 16.507c-.687.829-2.417 2.066-3.843 2.75s-3.115 2.292-3.755 3.575c-.639 1.282-2.564 3.778-4.279 5.547S407 279.184 407 279.904c0 .719-1.125 2.193-2.5 3.275s-2.5 2.833-2.5 3.894-.45 1.927-1 1.927-1 .606-1 1.346c0 1.72-2.834 7.433-4.063 8.193-.515.319-.937 1.452-.937 2.52s-.45 1.941-1 1.941-1 .9-1 2-.45 2-1 2-1 .816-1 1.813c0 2.685-5.857 8.037-6.917 6.321-1.494-2.417-4.583-.866-4.583 2.3 0 1.59-.562 3.08-1.25 3.312s-1.25 1.707-1.25 3.278c0 1.572-.45 3.136-1 3.476s-1 2.313-1 4.385c0 2.725-.691 4.416-2.5 6.115-1.375 1.292-2.5 3.17-2.5 4.174 0 2.382-2.231 2.333-4.43-.097-1.442-1.593-1.768-4.119-1.905-14.735-.146-11.336-.367-12.851-1.917-13.151-1.685-.325-7.502 5.398-7.03 6.916.12.386-.443 1.249-1.25 1.92-.822.681-1.468 2.899-1.468 5.036 0 2.101-.45 4.097-1 4.437s-1 2.391-1 4.559-.45 3.941-1 3.941-1 1.272-1 2.826c0 1.721-.977 3.743-2.5 5.174-2.5 2.349-2.5 2.349-4.98.019-1.791-1.683-2.317-2.978-1.894-4.665.404-1.61.087-2.527-1.02-2.952-2.303-.883-2.358-18.533-.064-20.437 2.078-1.725.59-2.935-2.792-2.271-1.765.346-2.75 1.175-2.75 2.316 0 .977-.723 2.053-1.606 2.392-1.148.441-1.426 1.333-.976 3.129.442 1.758.173 2.689-.893 3.098-.952.365-1.525 1.86-1.525 3.978 0 1.866-.45 3.393-1 3.393s-1 1.773-1 3.941-.45 4.219-1 4.559-1 1.443-1 2.452-.639 2.079-1.419 2.379c-1.747.67-5.581-2.5-5.581-4.615 0-.852-.488-1.712-1.084-1.911-1.46-.486-1.48-16.641-.022-18.099 1.637-1.637 1.346-2.706-.735-2.706-1.031 0-7.28-5.502-14.199-12.5-6.797-6.875-13.069-12.5-13.938-12.5s-2.229-.9-3.022-2-2.21-2-3.148-2-2.592-1.125-3.673-2.5c-1.344-1.708-2.951-2.5-5.073-2.5-1.708 0-3.106-.45-3.106-1s-2.405-1-5.345-1c-6.487 0-9.146 2.198-8.445 6.98.268 1.824-.087 3.503-.88 4.161-.852.707-1.33 3.396-1.33 7.481 0 3.585-.438 6.378-1 6.378-1.332 0-1.332 21.676 0 22.5.575.355 1 5.61 1 12.359 0 7.277.422 12.163 1.111 12.852 1.445 1.445 1.445 14.133 0 15.578-.611.611-1.111 2.344-1.111 3.852s-.45 3.019-1 3.359-1 1.941-1 3.559-.45 2.941-1 2.941-1 1.745-1 3.878c0 2.226-.639 4.407-1.5 5.122-.954.791-1.5 3-1.5 6.063 0 2.651-.45 5.097-1 5.437-1.324.818-1.324 24.182 0 25 .55.34 1 1.941 1 3.559 0 2.808.198 2.941 4.393 2.941 2.982 0 4.578.482 4.969 1.5.367.958 1.94 1.511 4.357 1.532 4.225.035 7.281 1.852 7.281 4.328 0 1.86.201 1.828-10.25 1.647-6.419-.111-7.75.134-7.75 1.429 0 .86.45 1.564 1 1.564s1 1.28 1 2.845c0 4.568 2.681 6.155 10.4 6.155 8.162 0 11.011 1.783 8.06 5.044-.973 1.076-2.857 1.956-4.186 1.956s-3.1.683-3.936 1.519c-1.358 1.358-.83 2.203 4.995 8 3.582 3.564 7.124 6.481 7.869 6.481s2.005.9 2.798 2c.937 1.3 2.589 2 4.721 2 1.803 0 3.279.45 3.279 1s.914 1 2.031 1c1.118 0 2.291.675 2.607 1.5.482 1.256 3.487 1.5 18.469 1.5 11.262 0 17.893.371 17.893 1 0 .55 1.323 1 2.941 1s3.219.45 3.559 1 1.314 1 2.165 1 2.432 1.125 3.514 2.5 2.639 2.5 3.46 2.5 3.152 1.571 5.178 3.491c4.606 4.366 9.068 4.741 12.004 1.009 1.082-1.375 2.611-2.5 3.399-2.5s2.475-1.111 3.751-2.469 2.653-2.263 3.061-2.011 1.297-.212 1.977-1.031S372.54 498 374.122 498s2.878-.45 2.878-1 2.025-1 4.5-1 4.5-.45 4.5-1c0-.605 4.293-1 10.878-1 8.449 0 11.155-.335 12.122-1.5.791-.954 3-1.5 6.063-1.5 2.651 0 5.097-.45 5.437-1s1.941-1 3.559-1 2.941-.45 2.941-1 1.575-1 3.5-1 3.5-.45 3.5-1 .914-1 2.031-1c1.118 0 2.291-.675 2.607-1.5s1.189-1.5 1.939-1.5c.749 0 2.965-.9 4.923-2s4.174-2 4.923-2c.75 0 1.622-.675 1.939-1.5s1.286-1.5 2.155-1.5c1.926 0 15.483-13.283 15.483-15.17 0-.742 1.565-2.695 3.478-4.34 4.418-3.798 4.537-5.599.347-5.28-1.81.138-3.35-.285-3.583-.984-.288-.865-3.526-1.226-10.997-1.226-8.25 0-10.973-.349-12.335-1.581-1.66-1.503-1.652-1.677.171-3.5 1.056-1.056 2.567-1.919 3.36-1.919s1.719-.45 2.059-1c.886-1.434 25.79-1.31 27.236.136 1.589 1.589 4.264-1.238 4.264-4.506 0-1.381.45-2.79 1-3.13s1-1.893 1-3.452c0-1.648.654-3.085 1.563-3.434 3.241-1.244.088-2.614-6.015-2.614-4.602 0-6.486.395-6.889 1.446-.394 1.026-1.525 1.288-3.903.902-2.358-.383-3.741-.071-4.675 1.054-.791.953-2.866 1.598-5.144 1.598-2.101 0-4.097.45-4.437 1s-1.904 1-3.476 1c-1.571 0-3.054.563-3.295 1.25-.313.895-1.06.696-2.63-.698-2.896-2.571-2.511-6.922.651-7.372 1.238-.175 2.25-.738 2.25-1.25 0-.511 1.323-.93 2.941-.93s3.219-.45 3.559-1 1.956-1 3.59-1c1.72 0 3.215-.632 3.548-1.5.414-1.077 2.098-1.5 5.969-1.5 2.966 0 5.393-.45 5.393-1 0-.562 2.782-1 6.345-1 7.836 0 9.655-1.558 9.655-8.27 0-2.536-.45-4.89-1-5.23s-1-2.786-1-5.437c0-3.063-.546-5.272-1.5-6.063-.861-.715-1.5-2.896-1.5-5.122 0-2.133-.45-3.878-1-3.878s-1-1.575-1-3.5-.45-3.5-1-3.5-1-.707-1-1.571c0-.865-.635-2.207-1.411-2.983s-1.195-2.238-.93-3.248c.264-1.011-.226-2.424-1.089-3.14-.864-.717-1.57-2.048-1.57-2.96s-.9-2.305-2-3.098-2-2.185-2-3.094-1.575-2.997-3.5-4.641-3.5-3.7-3.5-4.568c0-.869-.45-1.857-1-2.197s-1-2.786-1-5.437c0-3.063-.546-5.272-1.5-6.063s-1.5-3-1.5-6.063c0-2.651-.45-5.097-1-5.437s-1-2.365-1-4.5-.45-4.16-1-4.5-1-1.893-1-3.452c0-1.68-.654-3.085-1.606-3.45-1.117-.429-1.425-1.34-1.01-2.993.377-1.5.047-2.832-.894-3.613-.819-.68-1.49-2.082-1.49-3.114s-.45-1.878-1-1.878-1-.9-1-2-.45-2-1-2-1-.845-1-1.878-.675-2.437-1.5-3.122-1.5-1.795-1.5-2.467-.9-2.038-2-3.033-2-2.409-2-3.142c0-.732-2.244-3.588-4.987-6.345-4.281-4.304-5.537-5.013-8.877-5.013-2.247 0-4.42.637-5.142 1.507M427 281c0 .55-.9 1-2 1-1.265 0-2 .667-2 1.813 0 .997-1.386 3.135-3.08 4.75s-3.943 4.822-4.998 7.126c-1.054 2.305-2.368 4.469-2.919 4.809-.552.341-1.003 1.493-1.003 2.561s-.45 1.941-1 1.941c-1.54 0-1.184 7.959.429 9.571 1.761 1.762 5.201 1.865 5.988.179.466-1 .7-1 1.166 0 .321.688 1.87 1.25 3.441 1.25 1.572 0 3.118.422 3.437.937.938 1.518 6.659 4.063 9.134 4.063 1.258 0 2.565.45 2.905 1s1.491 1 2.559 1c1.747 0 1.941-.742 1.941-7.441 0-4.093-.45-7.719-1-8.059s-1-2.336-1-4.437c0-2.174-.646-4.354-1.5-5.063-.825-.685-1.5-2.54-1.5-4.122 0-1.583-.45-2.878-1-2.878s-1-.9-1-2-.45-2-1-2-1-.83-1-1.845-.823-2.59-1.829-3.5c-2.082-1.884-3.171-2.109-3.171-.655m148 9.845c0 1.015.903 2.663 2.007 3.662 2.621 2.371 4.993 7.193 4.993 10.147 0 1.29.45 2.346 1 2.346.613 0 1 4.833 1 12.5s-.387 12.5-1 12.5c-.55 0-1 .83-1 1.845s-.823 2.59-1.829 3.5c-1.976 1.788-5.171 2.236-5.171.725 0-.512-1.013-1.075-2.25-1.25-1.698-.242-2.25-.982-2.25-3.014 0-1.482-.562-3.26-1.25-3.95S568 327.34 568 325.8s-.45-2.8-1-2.8-1-1.323-1-2.941-.45-3.219-1-3.559-1-1.201-1-1.914c0-1.632-14.868-16.586-16.49-16.586-.66 0-2.015-.9-3.01-2-1.444-1.596-3.08-2-8.096-2-3.457 0-6.564.45-6.904 1s-2.365 1-4.5 1-4.16.45-4.5 1-1.941 1-3.559 1-2.941.45-2.941 1-1.295 1-2.878 1c-1.582 0-3.437.675-4.122 1.5s-2.09 1.5-3.122 1.5-1.878.45-1.878 1-1.323 1-2.941 1-3.219.45-3.559 1-1.443 1-2.452 1-2.09.667-2.403 1.483c-.322.84-1.233 1.229-2.099.896-.893-.343-1.785.08-2.145 1.017-.338.882-1.467 1.604-2.508 1.604s-1.893.45-1.893 1-.83 1-1.845 1-2.59.823-3.5 1.829C474.83 317.846 474.43 321 476 321c.576 0 1 3.126 1 7.378 0 5.313.417 7.723 1.489 8.613.819.68 1.286 1.563 1.039 1.964-.248.4 1.107 2.238 3.011 4.083s3.461 4.118 3.461 5.051.675 1.956 1.5 2.273c.825.316 1.5 1.489 1.5 2.607 0 1.117.45 2.031 1 2.031s1 .873 1 1.941.45 2.219 1 2.559 1 1.491 1 2.559.45 1.941 1 1.941 1 1.364 1 3.031c0 1.772.623 3.271 1.5 3.607.926.356 1.5 1.875 1.5 3.969 0 1.866.45 3.393 1 3.393.561 0 1 2.767 1 6.3 0 3.465.432 6.732.959 7.259.528.528 1.09 5.23 1.25 10.45l.291 9.491 7.75.292c7.75.292 7.75.292 7.75 4.75s0 4.458-7.345 4.458c-8.569 0-10.655 1.435-10.655 7.329 0 2.019-.45 3.671-1 3.671s-1 1.295-1 2.878c0 1.582-.645 3.412-1.433 4.066-2.375 1.972 1.549 5.056 6.433 5.056 2.2 0 4 .45 4 1s.9 1 2 1c1.619 0 2 .667 2 3.5 0 3.5 0 3.5-7.171 3.5-5.27 0-7.656-.439-9-1.655-1.705-1.543-1.965-1.532-3.829.155-1.1.995-2 2.36-2 3.033 0 .672-.675 1.782-1.5 2.467s-1.5 1.879-1.5 2.653c0 1.786-18.454 20.347-20.229 20.347-.727 0-3.555 2.302-6.284 5.115s-5.868 5.52-6.975 6.015-3.362 1.76-5.012 2.812-3.788 1.945-4.75 1.985S441 496.45 441 497s-1.295 1-2.878 1c-1.582 0-3.461.704-4.175 1.564-.83 1-2.146 1.352-3.645.976-1.586-.398-2.536-.095-2.931.935-.401 1.046-1.964 1.525-4.978 1.525-2.416 0-4.393.45-4.393 1s-2.475 1-5.5 1-5.5.45-5.5 1c0 .576-3.126 1-7.378 1-5.337 0-7.721.415-8.622 1.5-.709.854-2.889 1.5-5.063 1.5-2.101 0-4.097.45-4.437 1s-1.491 1-2.559 1-1.941.45-1.941 1-1.249 1-2.775 1c-2.117 0-4.489 1.725-10 7.274-7.225 7.273-7.225 7.273-7.225 13.5 0 3.484.44 6.226 1 6.226.55 0 1-.675 1-1.5s1.816-3.316 4.036-5.536c3.543-3.543 4.214-3.857 5.5-2.571 1.955 1.956 1.847 2.89-.536 4.607-2.741 1.975-2.922 12.95-.25 15.095 6.343 5.093 9.25 5.101 9.25.027 0-2.214.639-4.407 1.489-5.113.819-.68 1.227-1.659.908-2.176s.859-2.317 2.62-4c3.201-3.059 3.201-3.059 5.275-.985 1.876 1.875 1.913 2.136.391 2.72-.926.355-1.683 1.498-1.683 2.539s-.45 1.893-1 1.893-1 2.025-1 4.5c0 4.5 0 4.5 10.941 4.5 6.215 0 11.208-.432 11.559-1 .34-.55 1.886-1 3.437-1s3.387-.685 4.082-1.523 2.036-1.277 2.981-.977 2.286-.14 2.981-.977c.695-.838 2.109-1.523 3.141-1.523s1.878-.45 1.878-1c0-.577 3.147-1 7.441-1 4.093 0 7.719-.45 8.059-1s3.911-1 7.937-1c5.285 0 7.664-.417 8.563-1.5.791-.954 3-1.5 6.063-1.5 2.651 0 5.097-.45 5.437-1s2.391-1 4.559-1 3.941-.45 3.941-1 1.575-1 3.5-1c2.458 0 3.5-.45 3.5-1.514 0-3.309 9.184-14.596 13.5-16.591 1.1-.509 3.35-1.785 5-2.837 1.65-1.051 4.661-1.945 6.691-1.985s3.969-.523 4.309-1.073 1.915-1 3.5-1 3.16.45 3.5 1c1.085 1.756 4.5 1.139 4.5-.813 0-2.136 4.967-7.187 7.067-7.187.802 0 2.317-1.144 3.367-2.541s2.523-2.306 3.275-2.017c.752.288 1.623-.143 1.936-.959.383-.999 2.002-1.483 4.962-1.483 3.726 0 4.393-.304 4.393-2 0-1.1-.45-2-1-2s-1-.845-1-1.878-.706-2.463-1.57-3.18c-.863-.716-1.353-2.129-1.089-3.14.265-1.01-.154-2.472-.93-3.248-1.89-1.89-2.056-30.509-.188-32.377.673-.673 1.088-2.788.923-4.702-.21-2.444.169-3.659 1.277-4.084.867-.333 1.577-1.218 1.577-1.968 0-.749.9-2.965 2-4.923s2-4.045 2-4.636 1.125-1.961 2.5-3.043c1.375-1.081 2.5-2.631 2.5-3.443 0-1.87 11.466-13.378 13.329-13.378.765 0 2.236-1.125 3.268-2.5 1.033-1.375 2.377-2.5 2.987-2.5 1.532 0 7.248-2.92 7.955-4.063.319-.515 1.902-.937 3.52-.937s2.941-.45 2.941-1c0-.617 5.167-1 13.5-1 13.5 0 13.5 0 13.5 3.5s0 3.5-5.5 3.5c-3.025 0-5.5.45-5.5 1s-1.977 1-4.393 1c-2.982 0-4.578.482-4.969 1.5-.316.825-1.489 1.5-2.607 1.5-1.117 0-2.031.45-2.031 1s-.661 1-1.47 1-3.072.9-5.03 2-3.994 2-4.523 2C580.789 416 568 428.878 568 430.074c0 .476-.9 2.468-2 4.426s-2 4.174-2 4.923c0 .75-.675 1.622-1.5 1.939s-1.5 1.489-1.5 2.607c0 1.117-.45 2.031-1 2.031s-1 2.448-1 5.441-.45 5.719-1 6.059c-.558.345-1 5.01-1 10.559 0 5.961.4 9.941 1 9.941.55 0 1 1.056 1 2.346 0 2.523 2.529 8.245 4.063 9.193.515.319.937 1.248.937 2.065 0 1.795 4.417 6.396 6.14 6.396.677 0 2.256.963 3.508 2.139 1.252 1.177 3.262 2.639 4.466 3.25 3.706 1.88 4.569 4.199 2.439 6.552-1.902 2.102-7.553 2.894-7.553 1.059 0-.603-4.167-1-10.5-1s-10.5.397-10.5 1c0 .55-1.323 1-2.941 1s-3.219.45-3.559 1-1.491 1-2.559 1c-3.185 0-2.371 3.639 1.213 5.427 1.734.865 3.759 1.573 4.5 1.573.74 0 1.346.45 1.346 1s.845 1 1.878 1 2.433.67 3.113 1.489 1.584 1.274 2.009 1.011 1.329.192 2.009 1.011S561.54 528 563.122 528s2.878.45 2.878 1 2.475 1 5.5 1 5.5.45 5.5 1 2.42 1 5.378 1c3.56 0 5.798.507 6.622 1.5.973 1.173 3.733 1.5 12.654 1.5 9.219 0 11.519-.288 11.984-1.5.44-1.145 2.313-1.5 7.91-1.5 4.034 0 7.612-.45 7.952-1s2.365-1 4.5-1 4.16-.45 4.5-1 1.886-1 3.437-1 3.374-.67 4.054-1.489 1.604-1.262 2.053-.984c.45.278 1.083.077 1.407-.447.768-1.243 6.472-4.08 8.203-4.08.74 0 1.346-.45 1.346-1s.867-1 1.927-1 2.813-1.125 3.894-2.5c1.082-1.375 2.592-2.5 3.357-2.5s3.835-2.475 6.822-5.5 6.057-5.5 6.822-5.5 2.275-1.125 3.357-2.5c2.408-3.062 3.937-3.147 6.416-.354 1.37 1.544 1.554 2.269.655 2.583-.687.241-1.25 1.222-1.25 2.18s-1.123 2.798-2.496 4.087c-1.373 1.29-2.259 2.582-1.97 2.872.845.845-14.829 16.132-16.54 16.132-.854 0-2.201.9-2.994 2s-2.179 2-3.081 2c-.901 0-2.484 1.125-3.516 2.5s-2.644 2.5-3.581 2.5-1.982.45-2.322 1-1.941 1-3.559 1-2.941.45-2.941 1-.914 1-2.031 1c-1.118 0-2.291.675-2.607 1.5-.391 1.018-1.987 1.5-4.969 1.5-2.416 0-4.393.45-4.393 1s-2.475 1-5.5 1-5.5.45-5.5 1c0 .634-7.5 1-20.5 1s-20.5-.366-20.5-1c0-.563-2.814-1-6.441-1-3.543 0-6.719-.45-7.059-1s-1.886-1-3.437-1-3.404-.706-4.121-1.57c-.716-.863-2.105-1.359-3.085-1.103-.981.257-2.305-.162-2.943-.93S552.91 539 551.878 539s-1.878-.45-1.878-1-1.323-1-2.941-1-3.219-.45-3.559-1-1.443-1-2.452-1-2.093-.675-2.41-1.5c-.316-.825-1.701-1.5-3.076-1.5s-4.104-.9-6.062-2c-3.874-2.176-16.829-2.895-18-1-.34.55-1.491 1-2.559 1s-1.941.45-1.941 1-.83 1-1.845 1c-2.23 0-5.155 3.023-5.155 5.329 0 .919-.45 1.671-1 1.671-.583 0-1 3.333-1 8s.417 8 1 8c.55 0 1 .803 1 1.784 0 2.931 12.725 14.216 16.03 14.216.582 0 2.275 1.141 3.764 2.536s3.477 2.341 4.419 2.103c.943-.238 2.235.196 2.873.964.637.768 2.004 1.397 3.036 1.397s1.878.45 1.878 1 1.323 1 2.941 1 3.219.45 3.559 1 1.893 1 3.452 1c1.597 0 3.085.655 3.41 1.5.429 1.12 2.217 1.5 7.048 1.5 3.559 0 6.75.45 7.09 1 .351.568 5.344 1 11.559 1 6.627 0 10.941.394 10.941 1 0 .563 2.814 1 6.441 1 3.543 0 6.719-.45 7.059-1 .356-.576 5.657-1 12.5-1s12.144-.424 12.5-1c.34-.55 3.236-1 6.437-1 3.952 0 6.217-.481 7.063-1.5.709-.854 2.889-1.5 5.063-1.5 2.101 0 4.097-.45 4.437-1s1.941-1 3.559-1 2.941-.45 2.941-1 1.295-1 2.878-1c1.582 0 3.433-.67 4.113-1.489s1.584-1.274 2.009-1.011 1.329-.192 2.009-1.011S663.09 573 664.122 573s1.878-.45 1.878-1 .606-1 1.346-1c1.72 0 7.433-2.834 8.193-4.063.319-.515 1.353-.937 2.299-.937s2.369-.9 3.162-2 2.21-2 3.148-2 2.592-1.125 3.673-2.5c1.082-1.375 2.588-2.5 3.348-2.5 1.785 0 15.831-14.118 15.831-15.911 0-.75 1.575-2.71 3.5-4.354s3.5-3.832 3.5-4.862.45-1.873 1-1.873 1-.822 1-1.826 1.151-2.906 2.557-4.228c1.531-1.438 2.369-3.12 2.089-4.191-.257-.985.167-2.425.943-3.201s1.411-2.118 1.411-2.983c0-.864.45-1.571 1-1.571s1-1.575 1-3.5.45-3.5 1-3.5 1-2.427 1-5.393c0-3.871.423-5.555 1.5-5.969 1.051-.403 1.5-2.043 1.5-5.484 0-3.144-.539-5.357-1.5-6.154-1.068-.887-1.5-3.233-1.5-8.154 0-5.219.367-7.05 1.5-7.484 1.077-.414 1.5-2.098 1.5-5.969 0-2.966.45-5.393 1-5.393.617 0 1-5.167 1-13.5s-.383-13.5-1-13.5c-.576 0-1-3.126-1-7.378 0-5.337-.415-7.721-1.5-8.622-.854-.709-1.5-2.889-1.5-5.063 0-2.101-.45-4.097-1-4.437s-1-1.941-1-3.559-.45-2.941-1-2.941-1-1.323-1-2.941-.45-3.219-1-3.559-1-1.956-1-3.59c0-1.72-.632-3.215-1.5-3.548-.825-.317-1.5-1.401-1.5-2.41s-.45-2.112-1-2.452-1-1.491-1-2.559-.45-1.941-1-1.941-1-.852-1-1.893-.722-2.17-1.604-2.508c-.937-.36-1.36-1.252-1.017-2.145.333-.866-.056-1.777-.896-2.099-.816-.313-1.483-1.351-1.483-2.307s-.9-2.553-2-3.548-2-2.394-2-3.107-1.575-2.826-3.5-4.696-3.5-3.946-3.5-4.615c0-1.586-21.496-23.082-23.082-23.082-.669 0-2.746-1.575-4.615-3.5s-3.983-3.5-4.696-3.5-2.112-.9-3.107-2-2.592-2-3.548-2-1.997-.675-2.314-1.5-1.489-1.5-2.607-1.5c-1.117 0-2.031-.45-2.031-1s-.661-1-1.47-1-3.072-.9-5.03-2-4.06-2-4.67-2-1.689-.788-2.398-1.75c-1.225-1.663-1.323-1.662-1.982.037-.421 1.086-.056 2.491.929 3.579 2.311 2.554 2.347 17.641.044 18.525-1.108.425-1.487 1.64-1.277 4.084.165 1.914-.25 4.029-.923 4.702S634 334.045 634 334.834c0 2.208-5.193 6.163-8.095 6.165-4.658.002-6.127-2.902-5.772-11.405.208-5-.098-7.959-.909-8.77-.673-.673-1.224-2.484-1.224-4.024s-.45-2.8-1-2.8-1-1.272-1-2.826c0-1.721-.977-3.743-2.5-5.174-1.375-1.292-2.5-3.071-2.5-3.954 0-.882-.9-2.253-2-3.046s-2-2.242-2-3.221c0-1.121-.751-1.779-2.031-1.779-1.118 0-2.291-.675-2.607-1.5-.414-1.077-2.098-1.5-5.969-1.5-2.966 0-5.393-.45-5.393-1 0-.583-3.333-1-8-1-7.109 0-8 .205-8 1.845m-310.25 16.048c-2.4 2.434-2.607 23.151-.25 25.107 1.049.871 1.5 3.18 1.5 7.686 0 6.441 0 6.441 3.25 6.127 2.491-.24 3.325-.838 3.57-2.563.191-1.346 1.016-2.25 2.053-2.25.954 0 3.244-1.557 5.089-3.461s3.683-3.259 4.083-3.011 1.284-.22 1.964-1.039 1.888-1.489 2.685-1.489 2.106-.658 2.91-1.461c2.097-2.097.655-4.25-10.576-15.789-10.045-10.32-12.622-11.564-16.278-7.857M412.5 409.519c-2.2 2.415-4.761 4.412-5.691 4.436s-1.969.495-2.309 1.045c-1.141 1.847-12.157 1.158-16-1-1.958-1.1-4.152-2-4.875-2-1.86 0-4.625 3.307-4.625 5.531 0 2.468 5.858 8.461 7.612 7.788.754-.29 1.648.195 1.987 1.077.503 1.313 2.306 1.604 9.949 1.604 5.134 0 9.605-.438 9.935-.973.331-.536 2.158-1.712 4.059-2.614 1.902-.903 3.458-2.04 3.458-2.527s.9-.886 2-.886c1.283 0 2-.667 2-1.86 0-1.023 1.125-2.705 2.5-3.737 2.99-2.246 3.306-6.363.671-8.748-3.072-2.781-6.324-1.908-10.671 2.864M308 423c-.793 1.1-2.256 2-3.252 2s-2.07.675-2.386 1.5-1.401 1.5-2.41 1.5-2.112.45-2.452 1-1.941 1-3.559 1-2.941-.45-2.941-1-.822-1-1.826-1-2.882-1.125-4.174-2.5c-1.711-1.822-3.387-2.5-6.174-2.5-3.826 0-3.826 0-3.826 4.297 0 3.656.565 4.849 3.792 8 2.442 2.384 4.736 3.703 6.441 3.703 1.457 0 2.927.45 3.267 1s3.066 1 6.059 1 5.441-.45 5.441-1 1.272-1 2.826-1c1.711 0 3.74-.973 5.145-2.469 1.276-1.358 2.688-2.242 3.138-1.964 1.093.676 4.891-3.194 4.891-4.984 0-.779.563-1.623 1.25-1.875 1-.366 1-.723 0-1.783-.687-.729-1.25-2.135-1.25-3.125 0-2.627-6.072-2.475-8 .2m30.5 15c-.34.55-1.514 1-2.609 1-1.792 0-1.961.575-1.691 5.75.178 3.409.757 5.75 1.423 5.75.618 0 2.563 1.192 4.322 2.649 3.4 2.818 3.296 3.937-.85 9.101-1.985 2.472-8.266 2.324-10.595-.25-1.123-1.241-3.08-2-5.155-2-3.212 0-3.345.153-3.345 3.835 0 2.997.653 4.416 2.991 6.5 2.743 2.444 3.699 2.665 11.5 2.665 5.006 0 8.509-.412 8.509-1 0-.55.873-1 1.941-1s2.219-.45 2.559-1 1.915-1 3.5-1 3.16.45 3.5 1 4.319 1 8.843 1c8.225 0 8.225 0 13.441-5.281 5.53-5.6 6.375-8.36 3.387-11.064-2.772-2.509-4.277-2.03-9.001 2.862-5.717 5.919-8.988 6.021-14.876.463-4.205-3.97-4.205-3.97-.75-7.326 3.807-3.697 4.767-9.486 2.027-12.225-1.684-1.685-18.067-2.053-19.071-.429m407.236 24.598c-.329.329-.378 1.17-.11 1.871.269.7-.212 1.542-1.069 1.871-1.322.507-1.557 3.08-1.557 17.07 0 9.902-.399 16.718-1 17.09-.55.34-1 3.066-1 6.059s-.45 5.441-1 5.441-1 1.295-1 2.878c0 1.582-.67 3.433-1.489 4.113s-1.274 1.584-1.011 2.009-.192 1.329-1.011 2.009S734 525.54 734 527.122s-.45 2.878-1 2.878-1 .822-1 1.826-1.125 2.882-2.5 4.174-2.5 2.875-2.5 3.519-.9 1.986-2 2.981-2 2.405-2 3.132c0 1.717-23.628 25.368-25.344 25.368-.719 0-2.364 1.125-3.656 2.5s-2.875 2.5-3.519 2.5-1.986.9-2.981 2-2.64 2-3.655 2-1.845.45-1.845 1-.914 1-2.031 1c-1.118 0-2.291.675-2.607 1.5s-1.189 1.5-1.939 1.5c-.749 0-2.965.9-4.923 2s-4.378 2-5.377 2c-2.094 0-7.807 2.68-8.662 4.063-.319.515-1.902.937-3.52.937s-2.941.45-2.941 1-2.025 1-4.5 1-4.5.45-4.5 1-1.745 1-3.878 1c-2.278 0-4.406.638-5.161 1.547-.941 1.134-2.89 1.488-7.315 1.329-3.894-.141-6.17.197-6.422.953-.56 1.678-55.329 1.666-57.007-.012-.688-.688-3.42-1.079-6.524-.936-3.857.179-5.702-.187-6.64-1.317-.763-.919-2.872-1.564-5.116-1.564-2.101 0-4.097-.45-4.437-1s-1.941-1-3.559-1-2.941-.45-2.941-1-1.323-1-2.941-1-3.201-.422-3.52-.937c-.922-1.492-6.641-4.063-9.038-4.063-1.205 0-3.006-.9-4.001-2s-2.337-2-2.981-2-2.227-1.125-3.519-2.5-2.967-2.5-3.724-2.5C500.499 580 489 568.485 489 566.705c0-.746-1.125-2.413-2.5-3.705-1.822-1.711-2.5-3.387-2.5-6.174 0-3.706-.11-3.826-3.5-3.826-1.925 0-3.5.45-3.5 1s-1.773 1-3.941 1-4.219.45-4.559 1-3.531 1-7.09 1c-4.831 0-6.619.38-7.048 1.5-.452 1.178-2.487 1.5-9.469 1.5-5.262 0-8.893.408-8.893 1 0 .55-2.475 1-5.5 1s-5.5.45-5.5 1-.845 1-1.878 1-2.399.629-3.036 1.397c-.638.768-1.962 1.187-2.943.93-.98-.256-2.369.24-3.085 1.103-.768.925-2.872 1.57-5.121 1.57-2.101 0-4.097.45-4.437 1-.36.583-5.991 1-13.5 1s-13.14-.417-13.5-1c-.34-.55-3.018-1-5.952-1-3.819 0-5.498-.426-5.91-1.5-.316-.825-1.489-1.5-2.607-1.5-1.117 0-2.031-.45-2.031-1s-.835-1-1.855-1-4.196-2.475-7.057-5.5c-5.836-6.171-6.111-6.294-7.856-3.5-.687 1.1-2.097 2-3.133 2s-2.144.675-2.461 1.5-1.489 1.5-2.607 1.5c-1.117 0-2.031.45-2.031 1s-2.448 1-5.441 1-5.719.45-6.059 1-3.94 1-8 1-7.66-.45-8-1-2.815-1-5.5-1-5.16-.45-5.5-1-1.893-1-3.452-1c-1.597 0-3.085-.655-3.41-1.5-.316-.825-1.489-1.5-2.607-1.5-1.117 0-2.031-.45-2.031-1s-2.025-1-4.5-1-4.5-.45-4.5-1-1.295-1-2.878-1c-1.582 0-3.434-.671-4.114-1.49-.781-.941-2.113-1.271-3.613-.894-1.653.415-2.564.107-2.993-1.01-.339-.883-1.174-1.606-1.855-1.606-1.98 0-7.062-2.807-9.04-4.993-.999-1.104-2.44-2.007-3.201-2.007-1.745 0-11.306-9.628-11.306-11.385 0-.718-.9-2.12-2-3.115s-2-2.36-2-3.033c0-.672-.675-1.782-1.5-2.467s-1.5-2.09-1.5-3.122c0-2.252-2.267-2.466-4-.378-.685.825-2.54 1.5-4.122 1.5-1.583 0-2.878.45-2.878 1s-.873 1-1.941 1-2.219.45-2.559 1-1.443 1-2.452 1-2.104.704-2.434 1.563c-.33.86-1.027 1.3-1.549.977-1.013-.626-21.065 18.834-21.065 20.443 0 .526-.9 2.559-2 4.517s-2 4.174-2 4.923c0 .75-.675 1.622-1.5 1.939s-1.5 1.489-1.5 2.607c0 1.117-.45 2.031-1 2.031s-1 1.323-1 2.941-.45 3.219-1 3.559-1 2.301-1 4.359-.478 4.219-1.061 4.802c-1.439 1.439-1.431 31.675.008 32.155.579.193 1.053 2.338 1.053 4.767s.45 4.417 1 4.417 1 1.056 1 2.346c0 2.523 2.529 8.245 4.063 9.193.515.319.937 1.452.937 2.52s.45 1.941 1 1.941 1 .9 1 2 .374 2 .831 2 1.446 1.237 2.197 2.75 3.347 4.837 5.77 7.388c2.423 2.55 4.931 5.692 5.574 6.98s2.218 2.866 3.502 3.507c1.284.64 4.217 3.011 6.518 5.269s4.954 4.106 5.896 4.106 1.712.45 1.712 1 .9 1 2 1 2 .45 2 1 .873 1 1.941 1 2.201.422 2.52.937c.948 1.534 6.67 4.063 9.193 4.063 1.29 0 2.346.45 2.346 1s.873 1 1.941 1 2.219.45 2.559 1 2.786 1 5.437 1c3.063 0 5.272.546 6.063 1.5 1.844 2.222 33.509 2.222 34.362 0 .378-.985 1.939-1.5 4.548-1.5 2.184 0 4.25-.45 4.59-1s1.491-1 2.559-1 1.941-.45 1.941-1 1.272-1 2.826-1c1.721 0 3.743-.977 5.174-2.5 1.292-1.375 2.846-2.5 3.453-2.5 2.501 0 15.547-15.153 15.547-18.058 0-.597.635-1.72 1.411-2.496s1.195-2.238.93-3.248c-.264-1.011.226-2.424 1.089-3.14 2.305-1.913 2.274-17.574-.036-18.46-1.148-.441-1.426-1.333-.976-3.129.442-1.758.173-2.689-.893-3.098-.839-.322-1.525-1.337-1.525-2.257 0-1.749-10.872-12.72-14.736-14.87-2.719-1.512-22.852-1.719-23.764-.244-.34.55-1.214 1-1.941 1-1.721 0-9.559 7.838-9.559 9.559 0 .727-.45 1.601-1 1.941-1.434.886-1.236 14.104.25 16.764 2.234 3.997 4.024 5.736 5.905 5.736 2.295 0 2.592 5.396.416 7.571-1.618 1.619-7.571 1.956-7.571.429 0-.55-1.329-1-2.952-1-2.214 0-4.216-1.264-8-5.048-2.777-2.776-5.048-5.674-5.048-6.441s-.45-1.671-1-2.011c-.568-.351-1-5.324-1-11.5s.432-11.149 1-11.5c.55-.34 1-1.491 1-2.559s.45-1.941 1-1.941 1-.752 1-1.67c0-1.794 12.274-14.33 14.029-14.33.58 0 2.021-.9 3.201-2s3.132-2 4.336-2 2.749-.675 3.434-1.5c.978-1.178 3.773-1.5 13.015-1.5 9.541 0 11.88.284 12.347 1.5.333.868 1.828 1.5 3.548 1.5 1.634 0 3.25.45 3.59 1s1.842 1 3.338 1c1.573 0 3.328.843 4.162 2 .793 1.1 2.059 2 2.813 2 1.92 0 16.187 14.511 16.187 16.463 0 .88.675 1.859 1.5 2.175.825.317 1.5 1.401 1.5 2.41s.45 2.112 1 2.452 1 1.941 1 3.559.45 2.941 1 2.941c.625 0 1 6 1 16s-.375 16-1 16c-.55 0-1 1.323-1 2.941s-.45 3.219-1 3.559-1 1.956-1 3.59c0 1.72-.632 3.215-1.5 3.548-.825.317-1.5 1.358-1.5 2.314s-.9 2.553-2 3.548-2 2.312-2 2.926c0 1.569-16.918 17.903-20.25 19.551-1.512.749-2.75 1.891-2.75 2.538 0 1.586 2.894 7.302 4.063 8.024.515.319.937 1.452.937 2.52s.45 1.941 1 1.941 1 .9 1 2 .45 2 1 2 1 .812 1 1.804 1.575 3.33 3.5 5.196 3.5 3.926 3.5 4.579c0 1.543 7.878 9.421 9.421 9.421.653 0 2.696 1.557 4.541 3.461s3.683 3.259 4.083 3.011 1.284.22 1.964 1.039S356.09 744 357.122 744s1.878.45 1.878 1 .606 1 1.346 1c1.72 0 7.433 2.834 8.193 4.063.319.515 1.902.937 3.52.937s2.941.45 2.941 1 2.025 1 4.5 1 4.5.45 4.5 1c0 .625 6 1 16 1s16-.375 16-1c0-.55 2.025-1 4.5-1s4.5-.45 4.5-1 1.745-1 3.878-1c2.226 0 4.407-.639 5.122-1.5.685-.825 1.752-1.514 2.372-1.532.621-.017 1.993-.686 3.05-1.486 1.868-1.413 1.846-1.519-.75-3.75-1.47-1.263-2.672-2.97-2.672-3.793 0-.824-.9-2.146-2-2.939s-2-2.172-2-3.066-.903-2.442-2.007-3.441c-2.601-2.353-4.993-7.186-4.993-10.088 0-1.258-.45-2.565-1-2.905s-1-1.893-1-3.452c0-1.597-.655-3.085-1.5-3.41-2.216-.85-2.216-29.799 0-31.638.825-.685 1.5-2.09 1.5-3.122s.45-1.878 1-1.878 1-.679 1-1.509 1.201-2.856 2.668-4.503c2.51-2.816 2.777-2.896 4.5-1.336 1.956 1.77 2.492 6.822.832 7.848-1.302.805-1.302 10.195 0 11 .55.34 1 3.516 1 7.059 0 3.627.437 6.441 1 6.441.55 0 1 .845 1 1.878s.675 2.437 1.5 3.122 1.5 2.54 1.5 4.122c0 1.583.45 2.878 1 2.878s1 .9 1 2 .45 2 1 2 1 .812 1 1.804 1.575 3.33 3.5 5.196 3.5 3.926 3.5 4.579c0 1.536 7.875 9.421 9.409 9.421.646 0 3.162 2.025 5.591 4.5s5.223 4.5 6.208 4.5 1.792.45 1.792 1 .9 1 2 1 2 .45 2 1 .845 1 1.878 1 2.437.675 3.122 1.5 2.54 1.5 4.122 1.5c1.583 0 2.878.45 2.878 1s1.323 1 2.941 1 3.219.45 3.559 1 2.815 1 5.5 1 5.16.45 5.5 1c.358.58 5.844 1 13.059 1 7.627 0 12.441-.387 12.441-1 0-.563 2.814-1 6.441-1 3.543 0 6.719-.45 7.059-1s1.941-1 3.559-1 2.941-.45 2.941-1 .873-1 1.941-1 2.201-.422 2.52-.937c.711-1.15 6.427-4.063 7.972-4.063.619 0 1.774-.9 2.567-2s2.037-2 2.764-2c1.942 0 12.236-10.371 12.236-12.328 0-.919.399-1.672.886-1.672s1.632-1.462 2.545-3.25c.912-1.788 2.505-4.6 3.54-6.25s1.916-3.788 1.956-4.75S591.45 712 592 712s1-1.987 1-4.417.502-4.584 1.115-4.788c.73-.243 1.116-4.149 1.116-11.295s-.386-11.052-1.116-11.295c-.613-.204-1.115-1.658-1.115-3.229s-.45-3.136-1-3.476-1-1.491-1-2.559-.45-1.941-1-1.941-1-.822-1-1.826-1.125-2.882-2.5-4.174-2.5-2.861-2.5-3.487c0-1.392-5.214-6.513-6.63-6.513-.562 0-2.078-1.125-3.37-2.5s-3.17-2.5-4.174-2.5-1.826-.45-1.826-1-1.323-1-2.941-1-3.219-.45-3.559-1-4.641-1-9.559-1c-5.294 0-8.941.408-8.941 1 0 .55-1.323 1-2.941 1s-3.219.45-3.559 1-1.248 1-2.019 1c-1.599 0-10.633 9.302-11.661 12.006-.374.984-1.161 2.087-1.75 2.451-1.737 1.073-1.37 16.049.43 17.543.825.685 1.5 1.897 1.5 2.694 0 1.892 2.45 4.306 4.37 4.306.831 0 1.79.45 2.13 1s3.47 1 6.955 1c5.967 0 6.514-.201 9.35-3.43 2.844-3.24 3.1-3.333 4.603-1.671 1.012 1.117 1.583 3.552 1.566 6.68-.023 4.55-.39 5.279-4.871 9.671-3.177 3.114-5.708 4.75-7.352 4.75-1.378 0-2.985.577-3.57 1.282-1.188 1.431-9.181 1.094-9.181-.387 0-.492-1.323-.895-2.941-.895s-3.219-.45-3.559-1-1.223-1-1.962-1c-1.669 0-14.661-12.992-14.024-14.023.255-.413-.206-1.306-1.025-1.986S502 684.46 502 682.878s-.45-2.878-1-2.878c-.593 0-1-3.667-1-9s.407-9 1-9c.55 0 1-1.295 1-2.878 0-1.582.67-3.433 1.489-4.113s1.274-1.584 1.011-2.009.192-1.329 1.011-2.009 1.489-1.916 1.489-2.746.847-2.245 1.881-3.142 2.053-2.52 2.262-3.606 1.239-2.139 2.289-2.342c1.049-.202 3.803-2.344 6.118-4.761s4.913-4.394 5.771-4.394c.859 0 1.839-.45 2.179-1s1.941-1 3.559-1 2.941-.45 2.941-1 1.295-1 2.878-1c1.582 0 3.437-.675 4.122-1.5 1.853-2.233 19.53-2.166 20.391.077.425 1.108 1.64 1.487 4.084 1.277 1.914-.165 4.029.25 4.702.923S572.21 628 573.2 628s1.8.45 1.8 1 .606 1 1.346 1c1.72 0 7.433 2.834 8.193 4.063.319.515 1.212.937 1.986.937 1.776 0 15.475 13.615 15.475 15.379 0 .721.903 2.129 2.007 3.128 2.236 2.023 4.993 7.074 4.993 9.147 0 .74.45 1.346 1 1.346s1 1.295 1 2.878c0 1.582.675 3.437 1.5 4.122 1.228 1.019 1.5 4.396 1.5 18.622V707h9.941c5.549 0 10.214-.442 10.559-1 .34-.55 1.941-1 3.559-1s2.941-.45 2.941-1 .681-1 1.514-1C647.94 703 666 684.811 666 679.346c0-.74.45-1.346 1-1.346s1-1.295 1-2.878c0-1.582.704-3.461 1.564-4.175 1-.83 1.352-2.146.976-3.645-.398-1.586-.095-2.536.935-2.931.839-.322 1.525-1.41 1.525-2.419s.45-2.112 1-2.452 1-1.491 1-2.559.45-1.941 1-1.941 1-.852 1-1.893.675-2.152 1.5-2.469 1.509-1.377 1.519-2.357c.022-2.023 17.996-20.281 19.966-20.281.707 0 2.328-1.125 3.603-2.5 1.274-1.375 2.986-2.5 3.805-2.5s1.767-.45 2.107-1 1.941-1 3.559-1 2.941-.45 2.941-1 1.745-1 3.878-1c2.226 0 4.407-.639 5.122-1.5.972-1.171 3.715-1.5 12.5-1.5s11.528.329 12.5 1.5c.709.854 2.889 1.5 5.063 1.5 2.101 0 4.097.45 4.437 1s1.941 1 3.559 1 2.941.45 2.941 1 .873 1 1.941 1 2.195.411 2.505.913c.743 1.201 10.575 6.087 12.25 6.087.717 0 1.304.45 1.304 1s.812 1 1.804 1 3.33 1.575 5.196 3.5 3.924 3.5 4.574 3.5 1.737.67 2.417 1.489 1.584 1.274 2.009 1.011 1.329.192 2.009 1.011S804.09 644 805.122 644s1.878.45 1.878 1 1.323 1 2.941 1 3.219.45 3.559 1 2.336 1 4.437 1c2.174 0 4.354.646 5.063 1.5.887 1.068 3.233 1.5 8.154 1.5 5.219 0 7.05-.367 7.484-1.5.403-1.049 2.039-1.5 5.439-1.5 3.009 0 6.22-.762 8.423-2 1.958-1.1 4.045-2 4.636-2s1.961-1.125 3.043-2.5c1.081-1.375 2.634-2.5 3.45-2.5 1.987 0 11.371-9.32 11.371-11.294 0-.858 1.125-2.446 2.5-3.527 1.498-1.178 2.5-2.988 2.5-4.514 0-1.401.45-2.825 1-3.165s1-1.491 1-2.559c0-1.552-.702-1.941-3.5-1.941-1.925 0-3.5.45-3.5 1 0 .617-5.167 1-13.5 1s-13.5-.383-13.5-1c0-.55-.606-1-1.346-1-1.72 0-7.433-2.834-8.193-4.063-.319-.515-1.227-.937-2.019-.937-1.636 0-9.442-7.243-9.442-8.761 0-.547.675-1.554 1.5-2.239s1.5-2.54 1.5-4.122c0-1.583.45-2.878 1-2.878.577 0 1-3.147 1-7.441 0-4.093-.45-7.719-1-8.059s-1-1.956-1-3.59c0-1.72-.632-3.215-1.5-3.548-.828-.318-1.5-1.803-1.5-3.314 0-1.506-.9-3.553-2-4.548s-2-2.43-2-3.189c0-1.737-5.626-7.311-7.379-7.311-.721 0-2.126-.9-3.121-2s-3.042-2-4.548-2c-1.511 0-2.996-.672-3.314-1.5-.333-.868-1.828-1.5-3.548-1.5-1.634 0-3.25-.45-3.59-1-1-1.618-19.033-1.267-20.414.397-.638.768-1.962 1.187-2.943.93-.98-.256-2.378.252-3.106 1.129-1.209 1.456-1.484 1.449-3.18-.086-2.319-2.098-2.527-7.37-.292-7.37 2.639 0 12.435-10.538 12.435-13.376 0-1.378.45-2.784 1-3.124s1-3.966 1-8.059c0-4.294-.423-7.441-1-7.441-.55 0-1-1.977-1-4.393 0-2.982-.482-4.578-1.5-4.969-.825-.316-1.5-1.645-1.5-2.953 0-2.784-2.405-7.947-4.521-9.702-.813-.675-1.479-1.973-1.479-2.883 0-1.879-3.363-5.1-5.324-5.1-.716 0-2.612-1.367-4.213-3.038-3.444-3.596-7.857-5.962-11.117-5.962-1.29 0-2.346-.45-2.346-1 0-1.103-1.328-1.339-2.264-.402m-499.013 21.413c-.948 1.107-1.723 2.682-1.723 3.5s-.45 1.489-1 1.489c-.606 0-1 4.314-1 10.941 0 6.215.432 11.208 1 11.559.55.34 1 1.837 1 3.328 0 2.05 1.8 4.469 7.398 9.941 4.069 3.977 8.133 7.231 9.032 7.231.898 0 1.892.675 2.208 1.5s1.189 1.5 1.939 1.5c.749 0 2.965.9 4.923 2 2.233 1.254 5.414 2 8.53 2 2.734 0 4.97.45 4.97 1s1.323 1 2.941 1 3.201.422 3.52.937c.948 1.534 6.67 4.063 9.193 4.063 1.29 0 2.346.45 2.346 1 0 .583 3.333 1 8 1 8 0 8 0 8-2.695 0-1.543-1.116-3.86-2.609-5.419-1.435-1.498-2.309-3.21-1.941-3.805 1.052-1.703 6.095-1.262 7.645.669 2.232 2.78 3.905 6.095 3.905 7.736 0 2.807 5.363 1.794 8.563-1.618 1.947-2.076 2.516-3.283 1.687-3.583-.687-.248-1.25-1.177-1.25-2.064 0-.886-1.212-2.877-2.693-4.423-3.119-3.255-2.21-5.151 2.22-4.626 2.696.319 3.729 1.405 4.894 5.141 1.015 3.257 2.579.68 2.579-4.25 0-3.047-.547-5.272-1.489-6.054-.819-.68-1.288-1.56-1.043-1.957.516-.835-6.902-7.962-10.204-9.804-1.23-.687-3.763-1.248-5.628-1.248s-3.951-.675-4.636-1.5c-.715-.861-2.896-1.5-5.122-1.5-2.133 0-3.878-.45-3.878-1 0-.617-5.167-1-13.5-1s-13.5-.383-13.5-1c0-.55-1.527-1-3.393-1-2.076 0-3.614-.576-3.962-1.483-.322-.84-1.233-1.229-2.099-.896-.893.343-1.785-.08-2.145-1.017-.338-.882-1.397-1.604-2.353-1.604s-2.553-.9-3.548-2-2.291-2-2.878-2-3.793-2.7-7.122-6c-5.964-5.911-6.081-5.971-7.777-3.989M725.008 640.49c-.781.941-2.113 1.271-3.613.894-1.653-.415-2.564-.107-2.993 1.01-.339.883-1.174 1.606-1.855 1.606-1.98 0-7.062 2.807-9.04 4.993-.999 1.104-2.443 2.007-3.207 2.007-1.792 0-6.3 4.494-6.3 6.28 0 .754-1.125 2.428-2.5 3.72-2.799 2.629-3.273 5-1 5 .825 0 1.5-.45 1.5-1s.9-1 2-1 2-.45 2-1 .873-1 1.941-1 2.219-.45 2.559-1 1.893-1 3.452-1c1.597 0 3.085-.655 3.41-1.5.333-.868 1.828-1.5 3.548-1.5 1.634 0 3.25-.45 3.59-1s3.516-1 7.059-1c3.627 0 6.441-.437 6.441-1 0-.6 3.98-1 9.941-1 5.549 0 10.214.442 10.559 1 .34.55 3.966 1 8.059 1 4.294 0 7.441.423 7.441 1 0 .55 1.977 1 4.393 1 2.982 0 4.578.482 4.969 1.5.415 1.083 2.112 1.5 6.107 1.5 3.042 0 5.531.45 5.531 1s2.025 1 4.5 1 4.5.45 4.5 1 2.025 1 4.5 1 4.5-.45 4.5-1-2.025-1-4.5-1-4.5-.45-4.5-1-1.323-1-2.941-1-3.201-.422-3.52-.937c-.711-1.15-6.427-4.063-7.972-4.063-.619 0-1.774-.9-2.567-2s-2.216-2-3.162-2-1.98-.422-2.299-.937c-.76-1.229-6.473-4.063-8.193-4.063-.74 0-1.346-.45-1.346-1s-.845-1-1.878-1-2.445-.685-3.14-1.522c-.783-.943-2.608-1.431-4.8-1.283-2.079.139-3.705-.264-3.943-.979-.646-1.938-25.603-1.687-27.231.274"/></svg>